<svg width="35" height="35" viewBox="0 0 35 35" fill="none" xmlns="http://www.w3.org/2000/svg">
<path d="M34.4617 34.4504C34.3309 34.4522 34.2038 34.4071 34.1034 34.3234C34.0031 34.2396 33.936 34.1227 33.9144 33.9938C32.9678 28.2684 31.4329 19.4533 31.0909 18.6248L30.9842 18.3678C30.5573 17.3233 30.1633 16.3363 29.3234 15.9918C28.229 15.5406 24.2645 14.2063 24.2234 14.1927C24.091 14.1427 23.9832 14.0434 23.9225 13.9156C23.8618 13.7878 23.853 13.6415 23.898 13.5074C23.943 13.3733 24.0382 13.2618 24.1636 13.1963C24.2891 13.1309 24.4351 13.1166 24.5709 13.1564C24.7351 13.2111 28.6175 14.5235 29.742 14.9829C30.9924 15.4996 31.5259 16.8038 31.9965 17.9549L32.1005 18.2092C32.6012 19.4177 34.7489 32.3478 34.9924 33.8161C35.0042 33.887 35.0018 33.9595 34.9855 34.0295C34.9691 34.0995 34.9391 34.1656 34.8972 34.2241C34.8553 34.2825 34.8022 34.332 34.7411 34.3699C34.68 34.4078 34.612 34.4333 34.541 34.4449L34.4617 34.4504Z" fill="white"/>
<path d="M26.5738 34.9973C26.4882 34.9967 26.4038 34.9761 26.3276 34.9371C25.4723 34.4756 24.7201 33.8449 24.1169 33.0833C23.2277 31.9131 22.8802 30.7346 22.634 29.3265C22.5515 28.6763 22.5369 28.0193 22.5902 27.3661C22.6285 26.5075 22.6668 25.6217 22.4178 25.1022C22.2153 24.6838 21.3918 23.1718 20.4397 21.4246C19.9937 20.6044 19.5204 19.7376 19.0716 18.901C17.7392 16.4402 17.0634 15.1442 16.8828 14.7012C16.456 13.6677 16.6338 12.9158 16.8582 12.4701C17.1812 11.8799 17.7069 11.4263 18.3384 11.1932C19.1154 10.8733 20.3083 10.8296 21.5861 12.44L28.1881 20.7466L27.3317 21.4274L20.7242 13.1072C20.0375 12.2432 19.3753 11.9342 18.7515 12.1912C18.3655 12.329 18.0395 12.5968 17.8295 12.9486C17.7418 13.16 17.7015 13.388 17.7114 13.6166C17.7213 13.8453 17.7812 14.069 17.8869 14.272C18.1031 14.7969 19.2139 16.8612 20.0293 18.3733C20.4807 19.2072 20.954 20.0767 21.3973 20.8942C22.3576 22.655 23.1839 24.1753 23.4 24.6182C23.7721 25.3838 23.7256 26.4118 23.6737 27.4071C23.6252 27.9807 23.6344 28.5578 23.701 29.1296C23.9254 30.4175 24.2181 31.4154 24.976 32.4107C25.4782 33.0452 26.1013 33.5739 26.8091 33.9665C26.9184 34.0224 27.0057 34.1134 27.0569 34.2249C27.1081 34.3364 27.1204 34.4619 27.0916 34.5811C27.0629 34.7004 26.9949 34.8066 26.8985 34.8825C26.8021 34.9585 26.6829 34.9999 26.5602 35L26.5738 34.9973Z" fill="white"/>
<path d="M22.8747 26.7949H22.8337C22.6668 26.7949 20.0976 26.248 19.5969 25.3539C19.493 25.1653 19.285 24.8672 19.0662 24.5555C18.6445 23.999 18.278 23.4029 17.9717 22.7756C17.9443 22.7092 17.9301 22.638 17.9302 22.5661C17.9302 22.4942 17.9444 22.423 17.972 22.3566C17.9996 22.2902 18.0399 22.2299 18.0908 22.1791C18.1417 22.1283 18.2021 22.0881 18.2686 22.0606C18.3351 22.0331 18.4063 22.019 18.4782 22.019C18.5502 22.0191 18.6214 22.0333 18.6878 22.0608C18.7543 22.0884 18.8146 22.1287 18.8654 22.1796C18.9163 22.2305 18.9566 22.2908 18.9841 22.3572C19.2618 22.9113 19.5887 23.4393 19.9608 23.9349C20.2071 24.2876 20.4205 24.5938 20.5518 24.8317C20.7816 25.1379 22.4944 25.6684 22.9158 25.7012C23.0601 25.7137 23.1935 25.7829 23.2869 25.8936C23.3802 26.0043 23.4258 26.1475 23.4137 26.2918C23.4028 26.4277 23.3415 26.5546 23.2418 26.6477C23.1421 26.7408 23.0111 26.7933 22.8747 26.7949Z" fill="white"/>
<path d="M21.8764 29.3706C21.1897 29.3706 20.4208 29.3295 20.0214 29.1628C19.1677 28.8073 16.8011 25.9227 16.4481 25.3977C16.1772 25.0053 16.0591 24.5275 16.116 24.0542C16.173 23.5809 16.401 23.1446 16.7573 22.8276C17.0356 22.5575 17.3852 22.3722 17.765 22.2933C18.1449 22.2143 18.5393 22.2451 18.9023 22.3819C18.9723 22.4067 19.0365 22.4455 19.091 22.4959C19.1455 22.5464 19.1891 22.6073 19.2193 22.6751C19.2494 22.7429 19.2655 22.8161 19.2664 22.8903C19.2673 22.9645 19.2531 23.0381 19.2247 23.1067C19.1963 23.1752 19.1542 23.2373 19.101 23.289C19.0478 23.3408 18.9846 23.3812 18.9153 23.4078C18.846 23.4344 18.7719 23.4466 18.6978 23.4437C18.6236 23.4407 18.5507 23.4228 18.4837 23.3908C18.3162 23.335 18.1365 23.3266 17.9646 23.3667C17.7926 23.4067 17.6352 23.4937 17.5097 23.6178C17.3399 23.7567 17.2295 23.9551 17.201 24.1725C17.1725 24.39 17.2281 24.6101 17.3565 24.788C17.8079 25.4634 19.9557 27.9324 20.44 28.1511C20.7683 28.2878 22.0652 28.3015 23.0775 28.2359C23.1494 28.2312 23.2215 28.2407 23.2896 28.2639C23.3578 28.287 23.4208 28.3234 23.4749 28.3709C23.529 28.4184 23.5732 28.476 23.605 28.5406C23.6368 28.6051 23.6556 28.6753 23.6603 28.7472C23.665 28.819 23.6554 28.891 23.6323 28.9591C23.6091 29.0273 23.5727 29.0902 23.5252 29.1442C23.4777 29.1983 23.42 29.2425 23.3554 29.2743C23.2908 29.3061 23.2205 29.3249 23.1487 29.3295C22.9708 29.3405 22.4619 29.3706 21.8764 29.3706Z" fill="white"/>
<path d="M18.1852 23.1499C17.8085 23.1498 17.4388 23.0477 17.1154 22.8546L1.02759 13.2849C0.549338 12.9994 0.203531 12.5364 0.0656426 11.997C-0.0722459 11.4576 0.00898105 10.8856 0.291594 10.4058L5.8731 1.02746C6.15982 0.548314 6.62482 0.202198 7.16631 0.064866C7.7078 -0.0724663 8.28168 0.0101709 8.76234 0.294691L24.8502 9.86442C25.3272 10.1504 25.672 10.6131 25.8093 11.1518C25.9466 11.6905 25.8654 12.2616 25.5835 12.7408L23.8488 15.6609C23.8173 15.7307 23.7715 15.793 23.7143 15.8439C23.6572 15.8948 23.5899 15.9332 23.517 15.9565C23.4441 15.9799 23.3671 15.9876 23.291 15.9794C23.2149 15.9711 23.1413 15.9469 23.0751 15.9085C23.0089 15.87 22.9516 15.8181 22.9067 15.7561C22.8618 15.6941 22.8305 15.6234 22.8147 15.5485C22.7989 15.4736 22.799 15.3963 22.815 15.3214C22.8311 15.2466 22.8626 15.176 22.9076 15.1141L24.645 12.194C24.7814 11.9632 24.8208 11.6878 24.7546 11.4281C24.6885 11.1684 24.5222 10.9453 24.2921 10.8077L8.19599 1.23526C7.96695 1.10541 7.69647 1.06933 7.44136 1.1346C7.18626 1.19986 6.9664 1.36138 6.82797 1.58524L1.23279 10.9663C1.09643 11.1971 1.05701 11.4724 1.12315 11.7322C1.18928 11.9919 1.35558 12.215 1.58574 12.3526L17.6736 21.9223C17.9047 22.0578 18.18 22.0968 18.4397 22.0308C18.6994 21.9647 18.9226 21.799 19.0608 21.5696L19.8816 20.2025C19.9131 20.1327 19.9589 20.0704 20.0161 20.0195C20.0732 19.9686 20.1404 19.9302 20.2134 19.9069C20.2863 19.8835 20.3633 19.8758 20.4394 19.884C20.5155 19.8923 20.5891 19.9165 20.6553 19.9549C20.7214 19.9934 20.7788 20.0453 20.8237 20.1073C20.8685 20.1693 20.8999 20.24 20.9157 20.3149C20.9315 20.3898 20.9313 20.4671 20.9153 20.542C20.8993 20.6168 20.8678 20.6874 20.8228 20.7493L20.002 22.1164C19.861 22.3541 19.6743 22.5616 19.4526 22.7268C19.231 22.892 18.9788 23.0116 18.7106 23.0789C18.5391 23.1243 18.3626 23.1482 18.1852 23.1499Z" fill="white"/>
<path d="M8.64746 10.269C8.45475 10.267 8.26598 10.2142 8.10025 10.1159L6.092 8.92108C5.84288 8.77266 5.66289 8.53149 5.59158 8.25055C5.52027 7.96961 5.56348 7.67186 5.7117 7.42273L6.61459 5.90524C6.7631 5.65628 7.00443 5.47642 7.28556 5.40516C7.56669 5.3339 7.86463 5.37707 8.11393 5.52519L10.1112 6.7173C10.3604 6.86572 10.5403 7.10689 10.6117 7.38783C10.683 7.66877 10.6398 7.96652 10.4915 8.21565L9.58865 9.73314C9.44034 9.98206 9.19926 10.162 8.91832 10.2335C8.82987 10.2566 8.73888 10.2685 8.64746 10.269ZM8.64746 9.17536L9.56403 7.65514L7.55578 6.46029L6.65289 7.97777L8.66114 9.17262L8.64746 9.17536ZM10.7651 15.3656C10.6688 15.3646 10.5744 15.3382 10.4915 15.289L3.92507 11.3846C3.81551 11.305 3.7394 11.1876 3.71147 11.0551C3.68353 10.9226 3.70576 10.7845 3.77385 10.6675C3.84194 10.5505 3.95105 10.4628 4.08006 10.4215C4.20908 10.3803 4.34883 10.3883 4.47227 10.444L11.0387 14.3485C11.1415 14.4094 11.2214 14.5022 11.2664 14.6127C11.3114 14.7233 11.319 14.8455 11.288 14.9608C11.257 15.076 11.1891 15.178 11.0947 15.2511C11.0003 15.3242 10.8846 15.3644 10.7651 15.3656ZM14.0183 17.2987C13.9219 17.2977 13.8275 17.2713 13.7447 17.2221L11.8295 16.0874C11.7597 16.0559 11.6973 16.0101 11.6464 15.953C11.5954 15.8959 11.557 15.8287 11.5337 15.7559C11.5103 15.683 11.5025 15.606 11.5108 15.53C11.5191 15.4539 11.5433 15.3804 11.5818 15.3143C11.6202 15.2481 11.6722 15.1908 11.7342 15.146C11.7963 15.1011 11.8671 15.0698 11.942 15.054C12.0169 15.0383 12.0943 15.0384 12.1692 15.0544C12.2441 15.0704 12.3147 15.1019 12.3767 15.1469L14.2919 16.2816C14.3946 16.3425 14.4746 16.4353 14.5196 16.5458C14.5646 16.6564 14.5721 16.7786 14.5411 16.8938C14.5101 17.0091 14.4423 17.1111 14.3479 17.1841C14.2534 17.2572 14.1377 17.2975 14.0183 17.2987Z" fill="white"/>
</svg>
