<svg width="18" height="18" viewBox="0 0 18 18" fill="none" xmlns="http://www.w3.org/2000/svg">
<path d="M8.264 17.5L3.8 9.7V8.428H4.592C5.36 8.428 6.016 8.348 6.56 8.188C7.104 8.028 7.536 7.772 7.856 7.42C8.176 7.052 8.376 6.58 8.456 6.004H3.8V4.396H8.432C8.32 3.852 8.112 3.404 7.808 3.052C7.504 2.684 7.096 2.412 6.584 2.236C6.072 2.06 5.456 1.972 4.736 1.972H3.8V0.363999H14V1.972H9.68C10.016 2.276 10.296 2.628 10.52 3.028C10.744 3.428 10.888 3.884 10.952 4.396H14V6.004H11C10.888 7.172 10.44 8.084 9.656 8.74C8.888 9.396 7.88 9.82 6.632 10.012L11.264 17.5H8.264Z" fill="#0DA2E7"/>
</svg>
