<svg width="18" height="18" viewBox="0 0 18 18" fill="none" xmlns="http://www.w3.org/2000/svg">
<g clip-path="url(#clip0_882_13708)">
<mask id="path-1-inside-1_882_13708" fill="white">
<path d="M16.0437 11.7562C16.027 11.7281 16.009 11.7009 15.9897 11.6746C15.8079 11.4205 15.5376 11.2525 15.2292 11.2018C15.0777 11.1765 14.9228 11.1814 14.7732 11.2164C14.6237 11.2513 14.4826 11.3155 14.358 11.4052L11.004 13.8001H7.49996C7.33466 13.8001 7.19998 13.6657 7.19998 13.5001C7.19998 13.3346 7.33466 13.2002 7.49996 13.2002H9.44998C10.029 13.2002 10.5 12.7292 10.5 12.1501C10.5 12.1468 10.4997 12.1192 10.4994 12.1162C10.4808 11.5375 9.99268 11.0863 9.426 11.1002H5.5233C5.17652 11.1036 4.84155 11.2266 4.575 11.4485L3.108 12.6695C3.07422 12.6977 3.04704 12.733 3.02838 12.7728C3.00972 12.8127 3.00003 12.8562 3 12.9002V16.5002C2.99999 16.5396 3.00774 16.5786 3.02281 16.615C3.03788 16.6514 3.05997 16.6845 3.08783 16.7123C3.11569 16.7402 3.14877 16.7623 3.18517 16.7773C3.22157 16.7924 3.26059 16.8002 3.29999 16.8002H10.7433C11.2314 16.7991 11.704 16.6285 12.0801 16.3175L15.717 13.3124C16.2111 12.9604 16.3545 12.277 16.0437 11.7562ZM15.3522 12.8368L11.6979 15.8551C11.4291 16.0772 11.0916 16.1992 10.743 16.2001H3.59998V13.0408L4.95926 11.9092C5.11887 11.7763 5.32077 11.7019 5.52598 11.7001L9.43556 11.6998C9.68426 11.6995 9.89186 11.8876 9.89998 12.1501C9.89998 12.3982 9.69807 12.6001 9.44998 12.6001H7.49996C7.00377 12.6001 6.59996 13.0039 6.59996 13.5001C6.59996 13.9963 7.00377 14.4001 7.49996 14.4001H11.1C11.1626 14.4 11.2237 14.3805 11.2749 14.3443L14.7075 11.893C14.8311 11.8042 14.9814 11.7697 15.132 11.7937C15.2823 11.8186 15.4137 11.9002 15.504 12.0262C15.513 12.0385 15.521 12.0511 15.5288 12.064C15.6807 12.3181 15.6102 12.652 15.3522 12.8368Z"/>
</mask>
<path d="M16.0437 11.7562C16.027 11.7281 16.009 11.7009 15.9897 11.6746C15.8079 11.4205 15.5376 11.2525 15.2292 11.2018C15.0777 11.1765 14.9228 11.1814 14.7732 11.2164C14.6237 11.2513 14.4826 11.3155 14.358 11.4052L11.004 13.8001H7.49996C7.33466 13.8001 7.19998 13.6657 7.19998 13.5001C7.19998 13.3346 7.33466 13.2002 7.49996 13.2002H9.44998C10.029 13.2002 10.5 12.7292 10.5 12.1501C10.5 12.1468 10.4997 12.1192 10.4994 12.1162C10.4808 11.5375 9.99268 11.0863 9.426 11.1002H5.5233C5.17652 11.1036 4.84155 11.2266 4.575 11.4485L3.108 12.6695C3.07422 12.6977 3.04704 12.733 3.02838 12.7728C3.00972 12.8127 3.00003 12.8562 3 12.9002V16.5002C2.99999 16.5396 3.00774 16.5786 3.02281 16.615C3.03788 16.6514 3.05997 16.6845 3.08783 16.7123C3.11569 16.7402 3.14877 16.7623 3.18517 16.7773C3.22157 16.7924 3.26059 16.8002 3.29999 16.8002H10.7433C11.2314 16.7991 11.704 16.6285 12.0801 16.3175L15.717 13.3124C16.2111 12.9604 16.3545 12.277 16.0437 11.7562ZM15.3522 12.8368L11.6979 15.8551C11.4291 16.0772 11.0916 16.1992 10.743 16.2001H3.59998V13.0408L4.95926 11.9092C5.11887 11.7763 5.32077 11.7019 5.52598 11.7001L9.43556 11.6998C9.68426 11.6995 9.89186 11.8876 9.89998 12.1501C9.89998 12.3982 9.69807 12.6001 9.44998 12.6001H7.49996C7.00377 12.6001 6.59996 13.0039 6.59996 13.5001C6.59996 13.9963 7.00377 14.4001 7.49996 14.4001H11.1C11.1626 14.4 11.2237 14.3805 11.2749 14.3443L14.7075 11.893C14.8311 11.8042 14.9814 11.7697 15.132 11.7937C15.2823 11.8186 15.4137 11.9002 15.504 12.0262C15.513 12.0385 15.521 12.0511 15.5288 12.064C15.6807 12.3181 15.6102 12.652 15.3522 12.8368Z" fill="#0DA2E7"/>
<path d="M16.0437 11.7562L14.7535 12.5213L14.7556 12.5249L16.0437 11.7562ZM15.9897 11.6746L14.7697 12.5474L14.7754 12.5553L14.7811 12.5631L15.9897 11.6746ZM15.2292 11.2018L14.982 12.6813L14.9857 12.6819L15.2292 11.2018ZM14.358 11.4052L15.2296 12.626L15.2347 12.6223L14.358 11.4052ZM11.004 13.8001V15.3001H11.4845L11.8756 15.0209L11.004 13.8001ZM10.4994 12.1162L9.00016 12.1644L9.00165 12.2107L9.00599 12.2568L10.4994 12.1162ZM9.426 11.1002V12.6002H9.44428L9.46256 12.5997L9.426 11.1002ZM5.5233 11.1002V9.60016H5.51594L5.50857 9.60023L5.5233 11.1002ZM4.575 11.4485L5.53459 12.6014L5.5346 12.6014L4.575 11.4485ZM3.108 12.6695L2.14841 11.5166L2.14644 11.5182L3.108 12.6695ZM3 12.9002L1.5 12.8991V12.9002H3ZM3 16.5002L4.5 16.5007V16.5002H3ZM3.29999 16.8002V15.3002H3.29946L3.29999 16.8002ZM10.7433 16.8002V18.3002L10.7465 18.3001L10.7433 16.8002ZM12.0801 16.3175L11.1247 15.1611L11.1243 15.1614L12.0801 16.3175ZM15.717 13.3124L14.8467 12.0907L14.803 12.1218L14.7616 12.156L15.717 13.3124ZM15.3522 12.8368L14.4786 11.6174L14.4367 11.6475L14.397 11.6803L15.3522 12.8368ZM11.6979 15.8551L10.7426 14.6986L10.7423 14.6989L11.6979 15.8551ZM10.743 16.2001V17.7001L10.747 17.7001L10.743 16.2001ZM3.59998 16.2001H2.09998V17.7001H3.59998V16.2001ZM3.59998 13.0408L2.64026 11.888L2.09998 12.3378V13.0408H3.59998ZM4.95926 11.9092L5.91897 13.062L5.91903 13.0619L4.95926 11.9092ZM5.52598 11.7001L5.52587 10.2L5.51287 10.2001L5.52598 11.7001ZM9.43556 11.6998L9.43567 13.1998L9.43747 13.1998L9.43556 11.6998ZM9.89998 12.1501H11.4V12.1269L11.3993 12.1037L9.89998 12.1501ZM11.1 14.4001V15.9001L11.103 15.9001L11.1 14.4001ZM11.2749 14.3443L12.141 15.569L12.1466 15.565L11.2749 14.3443ZM14.7075 11.893L15.5792 13.1137L15.5827 13.1112L14.7075 11.893ZM15.132 11.7937L15.3771 10.3138L15.3678 10.3123L15.132 11.7937ZM15.504 12.0262L14.2846 12.8998L14.2889 12.9058L14.2932 12.9117L15.504 12.0262ZM15.5288 12.064L16.8165 11.2946L16.8123 11.2876L15.5288 12.064ZM16.0437 11.7562L17.3339 10.9911C17.292 10.9206 17.2468 10.8522 17.1982 10.7861L15.9897 11.6746L14.7811 12.5631C14.7712 12.5497 14.762 12.5357 14.7535 12.5213L16.0437 11.7562ZM15.9897 11.6746L17.2096 10.8018C16.7956 10.2232 16.1738 9.83703 15.4727 9.72169L15.2292 11.2018L14.9857 12.6819C14.9014 12.668 14.8201 12.6178 14.7697 12.5474L15.9897 11.6746ZM15.2292 11.2018L15.4763 9.72231C15.1295 9.66436 14.7746 9.67569 14.4322 9.75565L14.7732 11.2164L15.1143 12.6771C15.0709 12.6872 15.0259 12.6886 14.982 12.6813L15.2292 11.2018ZM14.7732 11.2164L14.4322 9.75565C14.0897 9.8356 13.7665 9.9826 13.4812 10.1881L14.358 11.4052L15.2347 12.6223C15.1986 12.6483 15.1577 12.6669 15.1143 12.6771L14.7732 11.2164ZM14.358 11.4052L13.4863 10.1845L10.1323 12.5794L11.004 13.8001L11.8756 15.0209L15.2296 12.626L14.358 11.4052ZM11.004 13.8001V12.3001H7.49996V13.8001V15.3001H11.004V13.8001ZM7.49996 13.8001V12.3001C8.16217 12.3001 8.69998 12.8364 8.69998 13.5001H7.19998H5.69998C5.69998 14.4951 6.50715 15.3001 7.49996 15.3001V13.8001ZM7.19998 13.5001H8.69998C8.69998 14.1639 8.16218 14.7002 7.49996 14.7002V13.2002V11.7002C6.50714 11.7002 5.69998 12.5052 5.69998 13.5001H7.19998ZM7.49996 13.2002V14.7002H9.44998V13.2002V11.7002H7.49996V13.2002ZM9.44998 13.2002V14.7002C10.8574 14.7002 12 13.5576 12 12.1501H10.5H8.99999C8.99999 11.9007 9.20057 11.7002 9.44998 11.7002V13.2002ZM10.5 12.1501H12C12 12.1356 11.9997 12.1171 11.9996 12.1108C11.9995 12.1054 11.9994 12.0971 11.9992 12.0884C11.9991 12.0844 11.9989 12.0767 11.9986 12.0675C11.9985 12.063 11.9982 12.0548 11.9977 12.0446C11.9975 12.0402 11.9962 12.0116 11.9928 11.9757L10.4994 12.1162L9.00599 12.2568C9.00401 12.2358 9.00291 12.2192 9.0024 12.2112C9.00182 12.202 9.00143 12.1944 9.0012 12.1896C9.00074 12.1801 9.00048 12.1728 9.00036 12.1693C9.00012 12.1622 9.00001 12.1572 8.99999 12.1563C8.99993 12.1537 8.99993 12.1531 8.99996 12.1554C8.99999 12.1571 9.00001 12.159 9.00002 12.1604C9.00003 12.161 9.00003 12.1611 9.00003 12.1607C9.00003 12.1605 9.00002 12.1597 9.00001 12.1586C9.00001 12.1581 8.99999 12.1547 8.99999 12.1501H10.5ZM10.4994 12.1162L11.9986 12.0681C11.9533 10.6579 10.7717 9.56691 9.38944 9.60061L9.426 11.1002L9.46256 12.5997C9.21363 12.6058 9.00829 12.4172 9.00016 12.1644L10.4994 12.1162ZM9.426 11.1002V9.60016H5.5233V11.1002V12.6002H9.426V11.1002ZM5.5233 11.1002L5.50857 9.60023C4.81626 9.60703 4.14753 9.85265 3.6154 10.2956L4.575 11.4485L5.5346 12.6014C5.53556 12.6005 5.53678 12.6001 5.53804 12.6001L5.5233 11.1002ZM4.575 11.4485L3.61541 10.2955L2.14841 11.5166L3.108 12.6695L4.06759 13.8224L5.53459 12.6014L4.575 11.4485ZM3.108 12.6695L2.14644 11.5182C1.94424 11.6871 1.78157 11.8983 1.66988 12.1368L3.02838 12.7728L4.38688 13.4088C4.31252 13.5677 4.2042 13.7083 4.06956 13.8207L3.108 12.6695ZM3.02838 12.7728L1.66988 12.1368C1.55819 12.3754 1.5002 12.6356 1.5 12.8991L3 12.9002L4.5 12.9013C4.49987 13.0767 4.46125 13.2499 4.38688 13.4088L3.02838 12.7728ZM3 12.9002H1.5V16.5002H3H4.5V12.9002H3ZM3 16.5002L1.5 16.4996C1.49992 16.7361 1.54643 16.9703 1.63689 17.1888L3.02281 16.615L4.40873 16.0412C4.46904 16.1869 4.50006 16.343 4.5 16.5007L3 16.5002ZM3.02281 16.615L1.63689 17.1888C1.72734 17.4072 1.85996 17.6058 2.02717 17.773L3.08783 16.7123L4.14849 15.6517C4.25999 15.7632 4.34842 15.8955 4.40873 16.0412L3.02281 16.615ZM3.08783 16.7123L2.02717 17.773C2.19439 17.9402 2.39291 18.0728 2.61139 18.1633L3.18517 16.7773L3.75895 15.3914C3.90463 15.4517 4.037 15.5402 4.14849 15.6517L3.08783 16.7123ZM3.18517 16.7773L2.61139 18.1633C2.82987 18.2537 3.06404 18.3002 3.30052 18.3002L3.29999 16.8002L3.29946 15.3002C3.45714 15.3001 3.61328 15.3311 3.75895 15.3914L3.18517 16.7773ZM3.29999 16.8002V18.3002H10.7433V16.8002V15.3002H3.29999V16.8002ZM10.7433 16.8002L10.7465 18.3001C11.5824 18.2984 12.3917 18.0061 13.036 17.4735L12.0801 16.3175L11.1243 15.1614C11.0162 15.2508 10.8804 15.2999 10.7401 15.3002L10.7433 16.8002ZM12.0801 16.3175L13.0356 17.4738L16.6725 14.4687L15.717 13.3124L14.7616 12.156L11.1247 15.1611L12.0801 16.3175ZM15.717 13.3124L16.5874 14.534C17.7178 13.7287 18.043 12.1794 17.3317 10.9875L16.0437 11.7562L14.7556 12.5249C14.666 12.3747 14.7044 12.1921 14.8467 12.0907L15.717 13.3124ZM15.3522 12.8368L14.397 11.6803L10.7426 14.6986L11.6979 15.8551L12.6531 17.0116L16.3074 13.9933L15.3522 12.8368ZM11.6979 15.8551L10.7423 14.6989C10.7413 14.6997 10.7401 14.7001 10.7389 14.7001L10.743 16.2001L10.747 17.7001C11.4431 17.6982 12.1169 17.4548 12.6534 17.0114L11.6979 15.8551ZM10.743 16.2001V14.7001H3.59998V16.2001V17.7001H10.743V16.2001ZM3.59998 16.2001H5.09998V13.0408H3.59998H2.09998V16.2001H3.59998ZM3.59998 13.0408L4.55969 14.1936L5.91897 13.062L4.95926 11.9092L3.99954 10.7564L2.64026 11.888L3.59998 13.0408ZM4.95926 11.9092L5.91903 13.0619C5.81568 13.148 5.68402 13.1987 5.53908 13.2L5.52598 11.7001L5.51287 10.2001C4.95752 10.205 4.42205 10.4046 3.99948 10.7564L4.95926 11.9092ZM5.52598 11.7001L5.52609 13.2001L9.43567 13.1998L9.43556 11.6998L9.43545 10.1998L5.52587 10.2001L5.52598 11.7001ZM9.43556 11.6998L9.43747 13.1998C8.90171 13.2005 8.41847 12.7711 8.40069 12.1965L9.89998 12.1501L11.3993 12.1037C11.3652 11.0041 10.4668 10.1985 9.43365 10.1998L9.43556 11.6998ZM9.89998 12.1501H8.39998C8.39998 11.5698 8.86965 11.1001 9.44998 11.1001V12.6001V14.1001C10.5265 14.1001 11.4 13.2266 11.4 12.1501H9.89998ZM9.44998 12.6001V11.1001H7.49996V12.6001V14.1001H9.44998V12.6001ZM7.49996 12.6001V11.1001C6.17534 11.1001 5.09996 12.1755 5.09996 13.5001H6.59996H8.09997C8.09997 13.8323 7.8322 14.1001 7.49996 14.1001V12.6001ZM6.59996 13.5001H5.09996C5.09996 14.8247 6.17534 15.9001 7.49996 15.9001V14.4001V12.9001C7.8322 12.9001 8.09997 13.1679 8.09997 13.5001H6.59996ZM7.49996 14.4001V15.9001H11.1V14.4001V12.9001H7.49996V14.4001ZM11.1 14.4001L11.103 15.9001C11.4749 15.8994 11.8374 15.7837 12.141 15.569L11.2749 14.3443L10.4087 13.1196C10.61 12.9773 10.8504 12.9006 11.0969 12.9001L11.1 14.4001ZM11.2749 14.3443L12.1466 15.565L15.5792 13.1137L14.7075 11.893L13.8357 10.6723L10.4031 13.1236L11.2749 14.3443ZM14.7075 11.893L15.5827 13.1112C15.3784 13.258 15.1278 13.3119 14.8961 13.275L15.132 11.7937L15.3678 10.3123C14.8349 10.2275 14.2838 10.3504 13.8323 10.6748L14.7075 11.893ZM15.132 11.7937L14.8869 13.2735C14.6423 13.233 14.4244 13.0949 14.2846 12.8998L15.504 12.0262L16.7233 11.1525C16.403 10.7055 15.9222 10.4041 15.377 10.3138L15.132 11.7937ZM15.504 12.0262L14.2932 12.9117C14.2676 12.8767 14.2509 12.8495 14.2454 12.8403L15.5288 12.064L16.8123 11.2876C16.7911 11.2526 16.7583 11.2003 16.7147 11.1406L15.504 12.0262ZM15.5288 12.064L14.2412 12.8333C13.9729 12.3843 14.1346 11.8639 14.4786 11.6174L15.3522 12.8368L16.2258 14.0562C17.0858 13.4401 17.3885 12.2519 16.8165 11.2946L15.5288 12.064Z" fill="#0DA2E7" mask="url(#path-1-inside-1_882_13708)"/>
<mask id="path-3-inside-2_882_13708" fill="white">
<path d="M3.29101 12.3H0V12.9001H2.99099V17.4001H0V18H3.29101C3.33041 18.0001 3.36943 17.9923 3.40583 17.9772C3.44223 17.9622 3.47531 17.9401 3.50317 17.9122C3.53103 17.8843 3.55312 17.8513 3.56819 17.8149C3.58326 17.7785 3.59101 17.7394 3.591 17.7V12.6C3.59101 12.5606 3.58326 12.5216 3.56819 12.4852C3.55312 12.4488 3.53103 12.4157 3.50317 12.3879C3.47531 12.36 3.44223 12.3379 3.40583 12.3229C3.36943 12.3078 3.33041 12.3 3.29101 12.3Z"/>
</mask>
<path d="M3.29101 12.3H0V12.9001H2.99099V17.4001H0V18H3.29101C3.33041 18.0001 3.36943 17.9923 3.40583 17.9772C3.44223 17.9622 3.47531 17.9401 3.50317 17.9122C3.53103 17.8843 3.55312 17.8513 3.56819 17.8149C3.58326 17.7785 3.59101 17.7394 3.591 17.7V12.6C3.59101 12.5606 3.58326 12.5216 3.56819 12.4852C3.55312 12.4488 3.53103 12.4157 3.50317 12.3879C3.47531 12.36 3.44223 12.3379 3.40583 12.3229C3.36943 12.3078 3.33041 12.3 3.29101 12.3Z" fill="#0DA2E7"/>
<path d="M3.29101 12.3V13.8L3.29154 13.8L3.29101 12.3ZM0 12.3V10.8H-1.5V12.3H0ZM0 12.9001H-1.5V14.4001H0V12.9001ZM2.99099 12.9001H4.49099V11.4001H2.99099V12.9001ZM2.99099 17.4001V18.9001H4.49099V17.4001H2.99099ZM0 17.4001V15.9001H-1.5V17.4001H0ZM0 18H-1.5V19.5H0V18ZM3.29101 18L3.29154 16.5H3.29101V18ZM3.591 17.7H2.091L2.091 17.7006L3.591 17.7ZM3.591 12.6L2.091 12.5995V12.6H3.591ZM3.29101 12.3V10.8H0V12.3V13.8H3.29101V12.3ZM0 12.3H-1.5V12.9001H0H1.5V12.3H0ZM0 12.9001V14.4001H2.99099V12.9001V11.4001H0V12.9001ZM2.99099 12.9001H1.49099V17.4001H2.99099H4.49099V12.9001H2.99099ZM2.99099 17.4001V15.9001H0V17.4001V18.9001H2.99099V17.4001ZM0 17.4001H-1.5V18H0H1.5V17.4001H0ZM0 18V19.5H3.29101V18V16.5H0V18ZM3.29101 18L3.29048 19.5C3.52696 19.5001 3.76113 19.4536 3.97961 19.3631L3.40583 17.9772L2.83205 16.5913C2.97772 16.531 3.13386 16.5 3.29154 16.5L3.29101 18ZM3.40583 17.9772L3.97961 19.3631C4.19809 19.2727 4.39661 19.1401 4.56383 18.9729L3.50317 17.9122L2.44251 16.8515C2.554 16.74 2.68637 16.6516 2.83205 16.5913L3.40583 17.9772ZM3.50317 17.9122L4.56383 18.9729C4.73103 18.8057 4.86366 18.6071 4.95411 18.3886L3.56819 17.8149L2.18227 17.2411C2.24259 17.0954 2.33102 16.963 2.44251 16.8515L3.50317 17.9122ZM3.56819 17.8149L4.95411 18.3886C5.04457 18.1702 5.09108 17.936 5.091 17.6995L3.591 17.7L2.091 17.7006C2.09094 17.5429 2.12196 17.3868 2.18227 17.2411L3.56819 17.8149ZM3.591 17.7H5.091V12.6H3.591H2.091V17.7H3.591ZM3.591 12.6L5.091 12.6006C5.09108 12.3641 5.04457 12.1299 4.95411 11.9114L3.56819 12.4852L2.18227 13.059C2.12196 12.9133 2.09094 12.7572 2.091 12.5995L3.591 12.6ZM3.56819 12.4852L4.95411 11.9114C4.86366 11.6929 4.73103 11.4944 4.56383 11.3272L3.50317 12.3879L2.44251 13.4485C2.33102 13.3371 2.24259 13.2047 2.18227 13.059L3.56819 12.4852ZM3.50317 12.3879L4.56383 11.3272C4.39661 11.16 4.19809 11.0274 3.97961 10.9369L3.40583 12.3229L2.83205 13.7088C2.68637 13.6485 2.554 13.56 2.44251 13.4485L3.50317 12.3879ZM3.40583 12.3229L3.97961 10.9369C3.76113 10.8465 3.52696 10.8 3.29048 10.8L3.29101 12.3L3.29154 13.8C3.13386 13.8001 2.97772 13.7691 2.83205 13.7088L3.40583 12.3229Z" fill="#0DA2E7" mask="url(#path-3-inside-2_882_13708)"/>
<path d="M1.50001 15.0001C1.00382 15.0001 0.600012 15.4039 0.600012 15.9001C0.600012 16.3963 1.00382 16.8001 1.50001 16.8001C1.99621 16.8001 2.40001 16.3963 2.40001 15.9001C2.40001 15.4039 1.99621 15.0001 1.50001 15.0001ZM1.50001 16.2001C1.33471 16.2001 1.20002 16.0657 1.20002 15.9001C1.20002 15.7345 1.33471 15.6001 1.50001 15.6001C1.66532 15.6001 1.8 15.7345 1.8 15.9001C1.8 16.0657 1.66532 16.2001 1.50001 16.2001ZM17.7 9.30005H0.299988C0.260589 9.30004 0.221574 9.30779 0.185171 9.32286C0.148769 9.33793 0.115693 9.36002 0.0878336 9.38788C0.0599744 9.41574 0.037878 9.44882 0.022807 9.48522C0.00773613 9.52162 -1.38405e-05 9.56064 1.85549e-08 9.60004C1.85549e-08 10.7577 0.942012 11.7 2.09999 11.7H15.9C17.0577 11.7 18 10.7577 18 9.60004C18 9.56063 17.9923 9.52161 17.9772 9.4852C17.9622 9.44878 17.9401 9.4157 17.9122 9.38783C17.8843 9.35997 17.8513 9.33787 17.8148 9.32281C17.7784 9.30775 17.7394 9.30001 17.7 9.30005ZM15.9 11.1H2.09999C1.37549 11.1 0.7695 10.5837 0.630281 9.90006H17.3697C17.2305 10.5837 16.6245 11.1 15.9 11.1Z" fill="#0DA2E7"/>
<path d="M9.00021 1.5C4.6994 1.5 1.2002 4.99921 1.2002 9.30001V9.6C1.20018 9.6394 1.20793 9.67842 1.223 9.71482C1.23807 9.75122 1.26017 9.7843 1.28803 9.81215C1.31589 9.84001 1.34896 9.86211 1.38537 9.87718C1.42177 9.89225 1.46078 9.9 1.50018 9.89999H16.5002C16.5396 9.90003 16.5786 9.89229 16.615 9.87723C16.6515 9.86217 16.6845 9.84007 16.7124 9.81221C16.7403 9.78434 16.7624 9.75126 16.7774 9.71484C16.7925 9.67843 16.8002 9.63941 16.8002 9.6V9.30001C16.8002 4.99917 13.3013 1.5 9.00021 1.5ZM1.80021 9.29998C1.80021 5.33006 5.03029 2.09998 9.00021 2.09998C12.9701 2.09998 16.2002 5.33006 16.2002 9.29998H1.80021Z" fill="#0DA2E7"/>
<path d="M4.06559 4.92209C3.85555 5.15826 3.66247 5.40899 3.48779 5.67239L3.98789 6.00388C4.14702 5.76401 4.32285 5.53564 4.51407 5.32048L4.06559 4.92209ZM8.99998 2.7C7.31518 2.70091 5.71107 3.33749 4.48349 4.4916L4.8945 4.9287C6.0105 3.87928 7.46878 3.30089 9.00029 3.30001L8.99998 2.7ZM8.09998 0H9.89998V0.600012H8.09998V0Z" fill="#0DA2E7"/>
<path d="M8.7002 0.300049H9.30021V1.80006H8.7002V0.300049Z" fill="#0DA2E7"/>
</g>
<defs>
<clipPath id="clip0_882_13708">
<rect width="18" height="18" fill="white"/>
</clipPath>
</defs>
</svg>
