<svg width="18" height="18" viewBox="0 0 18 18" fill="none" xmlns="http://www.w3.org/2000/svg">
<g clip-path="url(#clip0_882_13752)">
<path d="M12.9746 14.13H16.5588M12.3418 12.0205H17.1916L16.6642 17.4726H12.8692L12.3418 12.0205ZM0.855305 9.52237L2.05768 17.1756C2.07069 17.2584 2.11282 17.3338 2.1765 17.3882C2.24018 17.4427 2.32121 17.4726 2.40499 17.4726H9.01837C9.10216 17.4726 9.18319 17.4427 9.24687 17.3882C9.31054 17.3338 9.35268 17.2584 9.36568 17.1756L10.5681 9.52237C10.8685 7.78301 9.68796 6.13408 7.94463 5.85786L6.9412 5.642V2.67383H4.48213V5.642L3.47873 5.85786C1.73537 6.13412 0.554895 7.78305 0.855305 9.52237Z" stroke="#0DA2E7" stroke-miterlimit="10" stroke-linecap="round" stroke-linejoin="round"/>
<path d="M7.66086 9.05291C6.50179 8.19889 4.92176 8.19889 3.7627 9.05291M3.94368 0.527344H7.47987V2.67388H3.94368V0.527344ZM4.23288 13.2732C4.23288 14.09 4.89501 14.7521 5.71176 14.7521C6.52851 14.7521 7.19064 14.09 7.19064 13.2732V12.1961C7.19064 11.3793 6.52851 10.7172 5.71176 10.7172C4.89501 10.7172 4.23288 11.3793 4.23288 12.1961V13.2732Z" stroke="#0DA2E7" stroke-miterlimit="10" stroke-linecap="round" stroke-linejoin="round"/>
</g>
<defs>
<clipPath id="clip0_882_13752">
<rect width="18" height="18" fill="white"/>
</clipPath>
</defs>
</svg>
