<svg width="73" height="24" viewBox="0 0 73 24" fill="none" xmlns="http://www.w3.org/2000/svg">
<path d="M72.9999 24H13.102L0 14L13.102 0C13.102 0 64.4938 0.000672913 73 0L72.9999 24Z" fill="url(#paint0_linear_2001_721)"/>
<path d="M21.8926 16.2149L21.9394 7.48779L27.6155 7.51823L27.6083 8.84349L23.5132 8.82153L23.5005 11.1908L27.3016 11.2112L27.2945 12.5365L23.4934 12.5161L23.4806 14.8981L27.6098 14.9203L27.6027 16.2456L21.8926 16.2149ZM30.4098 9.71506L31.7179 12.1383L33.0731 9.72935L34.7052 9.7381L32.7147 13.0002L34.7042 16.2836L33.0806 16.2749L31.7084 13.911L30.3236 16.2602L28.6872 16.2514L30.6991 12.9894L28.7735 9.70629L30.4098 9.71506ZM35.8501 18.7444L35.8984 9.7445L37.4154 9.75264L37.4096 10.835L37.4991 10.8355C37.5795 10.6768 37.6926 10.5084 37.8384 10.3302C37.9843 10.1492 38.1812 9.99538 38.429 9.86887C38.6769 9.73951 38.9925 9.67587 39.3761 9.67792C39.8817 9.68063 40.337 9.81234 40.7419 10.073C41.1496 10.3309 41.4714 10.7119 41.7073 11.216C41.9461 11.7173 42.0636 12.3316 42.0597 13.0588C42.0558 13.7776 41.9346 14.3877 41.6962 14.8893C41.4577 15.3909 41.1346 15.7727 40.7269 16.0347C40.3193 16.2967 39.8583 16.4263 39.3441 16.4236C38.9691 16.4216 38.6584 16.3574 38.4119 16.2311C38.1654 16.1048 37.9674 15.9531 37.8178 15.7762C37.671 15.5964 37.5568 15.4268 37.4753 15.2672L37.4114 15.2669L37.3927 18.7526L35.8501 18.7444ZM37.3936 13.0253C37.3913 13.4486 37.449 13.8196 37.5666 14.1385C37.687 14.4573 37.8604 14.7068 38.0867 14.887C38.3159 15.0644 38.5938 15.1539 38.9205 15.1557C39.2614 15.1575 39.5474 15.0681 39.7785 14.8875C40.0096 14.7041 40.1843 14.4536 40.3024 14.1361C40.4235 13.8157 40.4851 13.451 40.4873 13.0419C40.4895 12.6356 40.4332 12.2745 40.3184 11.9586C40.2036 11.6426 40.0316 11.3945 39.8025 11.2143C39.5733 11.0341 39.2869 10.9431 38.9431 10.9412C38.6136 10.9395 38.3333 11.0246 38.1023 11.1967C37.8712 11.3687 37.6952 11.6107 37.5742 11.9226C37.4561 12.2344 37.3959 12.602 37.3936 13.0253ZM43.3632 16.3301L43.3983 9.78472L44.9409 9.79299L44.9058 16.3384L43.3632 16.3301ZM44.1788 8.85992C43.9345 8.85861 43.7247 8.77651 43.5494 8.61364C43.3742 8.44792 43.2872 8.25001 43.2884 8.0199C43.2897 7.78695 43.3788 7.58998 43.5558 7.429C43.7328 7.26517 43.9435 7.18391 44.1878 7.18522C44.4349 7.18655 44.6447 7.27006 44.8171 7.43576C44.9924 7.59864 45.0794 7.79655 45.0782 8.0295C45.0769 8.25961 44.9878 8.45658 44.8108 8.6204C44.6366 8.7814 44.426 8.86124 44.1788 8.85992ZM46.492 16.3469L46.5271 9.8015L48.0228 9.80952L48.017 10.9004L48.0852 10.9008C48.2065 10.5236 48.4126 10.2335 48.7035 10.0305C48.9972 9.82469 49.3316 9.72279 49.7066 9.7248C49.7918 9.72526 49.8869 9.73003 49.992 9.73912C50.0999 9.74538 50.1894 9.7558 50.2603 9.77038L50.2527 11.1894C50.1875 11.1663 50.0839 11.1459 49.9419 11.1281C49.8028 11.1074 49.668 11.0968 49.5373 11.0961C49.256 11.0946 49.0029 11.1543 48.7778 11.2752C48.5556 11.3934 48.38 11.5586 48.251 11.771C48.122 11.9834 48.0567 12.2288 48.0553 12.5072L48.0346 16.3551L46.492 16.3469ZM53.8772 16.5143C53.221 16.5108 52.655 16.3714 52.1792 16.0961C51.7062 15.818 51.3433 15.4268 51.0903 14.9226C50.8373 14.4156 50.7127 13.8197 50.7163 13.1351C50.72 12.4618 50.851 11.8716 51.1094 11.3644C51.3706 10.8545 51.7336 10.4587 52.1981 10.1771C52.6627 9.89265 53.2075 9.7521 53.8325 9.75545C54.2359 9.75761 54.6163 9.825 54.9735 9.9576C55.3336 10.0874 55.6507 10.2879 55.9248 10.5593C56.2018 10.8307 56.4187 11.1756 56.5755 11.5941C56.7324 12.0097 56.8093 12.5044 56.8062 13.0783L56.8037 13.5513L51.4387 13.5225L51.4443 12.4827L55.3306 12.5036C55.3293 12.2081 55.2668 11.945 55.1431 11.7142C55.0193 11.4806 54.8456 11.2964 54.6219 11.1617C54.401 11.027 54.1428 10.9588 53.8474 10.9573C53.5321 10.9556 53.2547 11.0308 53.0152 11.1829C52.7758 11.3322 52.5886 11.5301 52.4538 11.7765C52.3218 12.0201 52.2536 12.2882 52.2492 12.5808L52.2443 13.4885C52.2423 13.8691 52.3101 14.1962 52.4478 14.4697C52.5856 14.7403 52.7791 14.9487 53.0283 15.095C53.2775 15.2383 53.5698 15.3109 53.905 15.3127C54.1294 15.3139 54.3327 15.2838 54.5149 15.2223C54.697 15.1579 54.8552 15.0636 54.9894 14.9393C55.1236 14.815 55.2253 14.6607 55.2944 14.4764L56.7339 14.6461C56.6409 15.0263 56.4659 15.3577 56.2087 15.6404C55.9543 15.9203 55.6293 16.1373 55.2336 16.2915C54.8379 16.4428 54.3858 16.517 53.8772 16.5143Z" fill="white"/>
<defs>
<linearGradient id="paint0_linear_2001_721" x1="-18.5" y1="16" x2="76" y2="14.5" gradientUnits="userSpaceOnUse">
<stop stop-color="#F81E1C"/>
<stop offset="1" stop-color="#921210"/>
</linearGradient>
</defs>
</svg>
